HIERARCHY
ROOT ui
{
	 OFFSET 0 0 0
	 CHANNELS 3 XPosition YPosition Z Position
	 EndSite
	 {
	 OFFSET 0 -1 0
	 }
}
ROOT li
{
	 OFFSET 0 0 0
	 CHANNELS 3 XPosition YPosition Z Position
	 EndSite
	 {
	 OFFSET 0 -1 0
	 }
}
ROOT ul
{
	 OFFSET 0 0 0
	 CHANNELS 3 XPosition YPosition Z Position
	 EndSite
	 {
	 OFFSET 0 -1 0
	 }
}
ROOT ll
{
	 OFFSET 0 0 0
	 CHANNELS 3 XPosition YPosition Z Position
	 EndSite
	 {
	 OFFSET 0 -1 0
	 }
}
ROOT tt
{
	 OFFSET 0 0 0
	 CHANNELS 3 XPosition YPosition Z Position
	 EndSite
	 {
	 OFFSET 0 -1 0
	 }
}
ROOT tb
{
	 OFFSET 0 0 0
	 CHANNELS 3 XPosition YPosition Z Position
	 EndSite
	 {
	 OFFSET 0 -1 0
	 }
}
ROOT td
{
	 OFFSET 0 0 0
	 CHANNELS 3 XPosition YPosition Z Position
	 EndSite
	 {
	 OFFSET 0 -1 0
	 }
}
ROOT v
{
	 OFFSET 0 0 0
	 CHANNELS 3 XPosition YPosition Z Position
	 EndSite
	 {
	 OFFSET 0 -1 0
	 }
}
ROOT bn
{
	 OFFSET 0 0 0
	 CHANNELS 3 XPosition YPosition Z Position
	 EndSite
	 {
	 OFFSET 0 -1 0
	 }
}
MOTION
Frames: 16
Frame Time: 0.002
-0.005712876796722412	-3.2534098625183104E-4	0		0.46876284790039063	-2.425414306640625	0		-0.7270140991210937	0.4233036804199219	0		-0.6085097045898438	-2.4645146484375	0		1.6603660888671874	-0.9300165405273437	0		3.389949951171875	-0.3760841064453125	0		4.67609912109375	-0.19403466796875	0		5.7256748046875	0.19796607971191407	0		-0.1534807891845703	5.96874365234375	0		
-0.057416988372802735	7.940080165863037E-4	0		0.4957562866210937	-2.432857666015625	0		-0.7277083740234375	0.4191651916503906	0		-0.5955264892578125	-2.47275634765625	0		1.6635589599609375	-0.9304259643554688	0		3.376199951171875	-0.3765602722167969	0		4.66538330078125	-0.19464175415039062	0		5.7199833984375	0.1971983184814453	0		-0.11554209899902344	5.974298828125	0		
7.898349761962891E-4	-8.116829991340638E-4	0		0.4427562255859375	-2.427786376953125	0		-0.724450927734375	0.4189916076660156	0		-0.5945780639648437	-2.47493017578125	0		1.6666783447265625	-0.9308441772460937	0		3.39637548828125	-0.37726608276367185	0		4.66859326171875	-0.19534661865234376	0		5.72321826171875	0.19636509704589844	0		-0.11171632385253906	5.9740625	0		
-0.0010537470579147338	0.003967103004455567	0		0.4756341552734375	-2.42828662109375	0		-0.788311279296875	0.4152596435546875	0		-0.6236565551757812	-2.46791015625	0		1.6727275390625	-0.92828662109375	0		3.387561279296875	-0.36278213500976564	0		4.67171142578125	-0.1960507354736328	0		5.72040771484375	0.2025748748779297	0		-0.10799250030517578	5.9738193359375	0		
0.013976518630981444	0.005626307964324951	0		0.4544616394042969	-2.42142919921875	0		-0.7751454467773438	0.43100906372070313	0		-0.6188675537109375	-2.4661220703125	0		1.6756534423828124	-0.928709228515625	0		3.4234736328125	-0.37359674072265625	0		4.67977099609375	-0.189781005859375	0		5.73344384765625	0.2016886901855469	0		-0.08831773376464844	5.98446142578125	0		
0.009824490547180176	-0.0015888969898223877	0		0.5110801391601563	-2.429106689453125	0		-0.7112660522460937	0.42239865112304686	0		-0.61620361328125	-2.466326416015625	0		1.6784617919921876	-0.9291290283203125	0		3.403389892578125	-0.36602215576171876	0		4.67761474609375	-0.1974295654296875	0		5.732310546875	0.19391545104980468	0		-0.1019285430908203	5.97432470703125	0		
-0.04240852355957031	-4.7015100717544555E-4	0		0.44669284057617187	-2.41894921875	0		-0.7124972534179688	0.41822552490234377	0		-0.5876315307617187	-2.461718017578125	0		1.6811373291015625	-0.9295443115234375	0		3.429059326171875	-0.3747526550292969	0		4.680369140625	-0.198095703125	0		5.73508642578125	0.19313690185546875	0		-0.11371098327636718	5.96317431640625	0		
0.015189743995666504	-0.002122750997543335	0		0.4840084533691406	-2.43150146484375	0		-0.8168523559570312	0.4187762451171875	0		-0.6232327270507813	-2.461666259765625	0		1.68064404296875	-0.9329326782226562	0		3.387656494140625	-0.3719993896484375	0		4.6829716796875	-0.19874298095703125	0		5.73770947265625	0.19238311767578126	0		-0.11059806060791015	5.9629169921875	0		
-0.03735956573486328	-9.987069964408875E-4	0		0.46230722045898437	-2.424636962890625	0		-0.7643492431640625	0.4222152099609375	0		-0.6070089721679688	-2.46498486328125	0		1.686033203125	-0.9303568725585938	0		3.418953857421875	-0.38874554443359377	0		4.6904599609375	-0.19240545654296876	0		5.73016748046875	0.19172793579101563	0		-0.09061540222167969	5.97153564453125	0		
0.030979276657104492	0.008257686614990234	0		0.49640798950195314	-2.423171630859375	0		-0.7930195922851563	0.4262275695800781	0		-0.6448080444335937	-2.44891943359375	0		1.693282470703125	-0.9237880249023438	0		3.428438720703125	-0.35532135009765625	0		4.69272509765625	-0.19300982666015626	0		5.74244970703125	0.19095860290527344	0		-0.07182897186279297	5.9811572265625	0		
-0.028983024597167967	0.0014396400451660155	0		0.46631234741210936	-2.4252412109375	0		-0.693906005859375	0.42530572509765624	0		-0.5729374389648437	-2.455654296875	0		1.6842977294921875	-0.9250941772460938	0		3.411369873046875	-0.37368927001953123	0		4.69480859375	-0.19359095764160156	0		5.7445498046875	0.19029058837890625	0		-0.08738446044921876	5.973025390625	0		
-0.031106353759765625	-0.0017977919578552246	0		0.4940169372558594	-2.430731689453125	0		-0.7580076904296875	0.42156787109375	0		-0.6071815185546875	-2.45362109375	0		1.68613671875	-0.9254716796875	0		3.4072958984375	-0.36713418579101564	0		4.6916533203125	-0.20111273193359375	0		5.74140185546875	0.181688232421875	0		-0.08510060119628907	5.97276220703125	0		
-0.029398406982421875	-0.0020655319690704344	0		0.4866392822265625	-2.422964111328125	0		-0.6953355102539063	0.412890869140625	0		-0.5716582641601563	-2.459106689453125	0		1.6877894287109374	-0.9258421020507812	0		3.420870361328125	-0.38269622802734377	0		4.69841015625	-0.194688232421875	0		5.73818017578125	0.18911221313476562	0		-0.09811666107177734	5.961609375	0		
-0.02787693977355957	-0.0023348100185394288	0		0.47100454711914064	-2.426134765625	0		-0.7856986694335938	0.425346435546875	0		-0.6282564697265625	-2.456912109375	0		1.6892596435546876	-0.9262066040039062	0		3.427482666015625	-0.36819464111328126	0		4.69992919921875	-0.19520858764648438	0		5.73971240234375	0.18852311706542968	0		-0.11522655487060547	5.96648583984375	0		
0.035511882781982425	0.002927052974700928	0		0.5022245178222656	-2.4266572265625	0		-0.6783342895507812	0.4243159790039063	0		-0.5989852905273437	-2.45036328125	0		1.696610107421875	-0.9196112060546875	0		3.427734130859375	-0.3786353759765625	0		4.70127197265625	-0.19571224975585938	0		5.7410673828125	0.1879557342529297	0		-0.0795301742553711	5.971962890625	0		
-0.02628804588317871	0.005128907203674316	0		0.4663690185546875	-2.416675048828125	0		-0.7831281127929688	0.42487774658203126	0		-0.5959036865234375	-2.4486240234375	0		1.6977493896484375	-0.9199657592773437	0		3.43402001953125	-0.3631105346679688	0		4.696521484375	-0.18715484619140624	0		5.75225927734375	0.1873332061767578	0		-0.07806343841552735	5.97169287109375	0		
